<svg width="152" height="152" viewBox="0 0 152 152" fill="none" xmlns="http://www.w3.org/2000/svg">
<circle cx="76" cy="76" r="76" fill="#473A63"/>
<circle cx="76.5" cy="76.5" r="63.5" fill="#191034"/>
<path d="M103.764 54.3875L99.6879 52.6842V80.1504L107.079 62.3262C108.326 59.2237 106.897 55.665 103.764 54.3875ZM44.4512 65.6417L59.5379 101.99C59.9821 103.095 60.7399 104.047 61.7181 104.728C62.6962 105.409 63.852 105.789 65.0433 105.822C65.8341 105.822 66.6554 105.67 67.4462 105.335L89.8633 96.0583C92.1446 95.1154 93.5437 92.8646 93.6046 90.6137C93.635 89.8229 93.4829 88.9408 93.2092 88.15L78.0008 51.8021C77.5709 50.6889 76.8159 49.7309 75.8339 49.0528C74.852 48.3746 73.6887 48.0078 72.4954 48C71.7046 48 70.9137 48.1825 70.1533 48.4563L47.7666 57.7333C46.2786 58.3427 45.0934 59.5181 44.4717 61.0011C43.8499 62.4841 43.8426 64.1533 44.4512 65.6417ZM93.5742 54.0833C93.5742 52.4699 92.9332 50.9226 91.7924 49.7818C90.6515 48.6409 89.1042 48 87.4908 48H83.0804L93.5742 73.3675" fill="#EBC811"/>
<path d="M66.5945 88.235C66.9488 88.236 67.2463 88.3105 67.4871 88.4585C67.73 88.6056 67.9127 88.824 68.0352 89.1135C68.2146 89.5374 68.224 89.9368 68.0635 90.3115C67.9041 90.6833 67.602 90.9633 67.1571 91.1516C66.7941 91.3053 66.4507 91.3417 66.127 91.2609C65.8025 91.1781 65.5248 90.9838 65.294 90.6782L65.6874 90.2222C65.8727 90.4729 66.0726 90.6382 66.287 90.7182C66.5027 90.7951 66.727 90.7843 66.9599 90.6858C67.2348 90.5694 67.424 90.3966 67.5273 90.1673C67.6298 89.9359 67.6273 89.6932 67.5199 89.4393C67.4328 89.2336 67.2975 89.0806 67.114 88.9801C66.9316 88.8766 66.6987 88.8231 66.415 88.8194L65.7535 88.8173C65.3929 88.819 65.0945 88.751 64.8582 88.6135C64.6239 88.4751 64.4473 88.2653 64.3283 87.9841C64.1897 87.6568 64.1969 87.3346 64.3497 87.0175C64.5026 86.7004 64.7678 86.462 65.1456 86.3021C65.4225 86.1849 65.6866 86.1424 65.9378 86.1747C66.1911 86.206 66.4228 86.3121 66.6329 86.4929L66.3022 86.9743C66.1239 86.8394 65.9525 86.7561 65.7881 86.7242C65.6228 86.6903 65.4594 86.7075 65.2978 86.7759C65.0921 86.8629 64.9499 86.9973 64.8709 87.1792C64.7941 87.3602 64.797 87.5482 64.8796 87.7434C64.9489 87.9071 65.0592 88.0274 65.2105 88.1044C65.3619 88.1814 65.5631 88.2212 65.8141 88.2238L66.5945 88.235ZM70.8724 87.7755C70.7347 87.4502 70.535 87.2267 70.2731 87.105C70.0125 86.9802 69.7395 86.9782 69.4541 87.099C69.1582 87.2242 68.966 87.4132 68.8775 87.6659C68.789 87.9186 68.814 88.2087 68.9525 88.536C69.0999 88.8844 69.2965 89.1179 69.5422 89.2366C69.79 89.3544 70.0671 89.3485 70.3735 89.2188C70.6673 89.0945 70.8584 88.906 70.9469 88.6533C71.0366 88.3975 71.0118 88.105 70.8724 87.7755ZM70.73 86.1062L71.9489 88.9863L71.4705 89.1888L71.2494 88.6663C71.2228 88.925 71.1428 89.1481 71.0094 89.3357C70.8772 89.5203 70.6999 89.6597 70.4774 89.7538C70.064 89.9288 69.6704 89.9284 69.2966 89.7525C68.924 89.5737 68.6387 89.2503 68.4407 88.7824C68.2399 88.3081 68.2033 87.8795 68.3307 87.4965C68.4572 87.1114 68.7261 86.8318 69.1374 86.6577C69.3787 86.5556 69.6106 86.5218 69.8331 86.5563C70.0567 86.5879 70.2684 86.6875 70.4681 86.8554L70.239 86.314L70.73 86.1062ZM72.9625 88.5574L70.8977 83.6785L71.4013 83.4653L73.4661 88.3442L72.9625 88.5574ZM76.1038 85.5615C75.9662 85.2362 75.7664 85.0127 75.5046 84.8909C75.2439 84.7662 74.9709 84.7642 74.6855 84.885C74.3896 85.0102 74.1974 85.1992 74.1089 85.4519C74.0204 85.7046 74.0454 85.9947 74.184 86.322C74.3314 86.6704 74.528 86.9039 74.7737 87.0226C75.0215 87.1404 75.2986 87.1345 75.6049 87.0048C75.8987 86.8805 76.0899 86.692 76.1784 86.4392C76.2681 86.1835 76.2432 85.8909 76.1038 85.5615ZM75.9615 83.8922L77.1804 86.7723L76.7019 86.9748L76.4808 86.4523C76.4542 86.711 76.3742 86.9341 76.2408 87.1217C76.1086 87.3063 75.9313 87.4457 75.7089 87.5398C75.2955 87.7148 74.9019 87.7143 74.5281 87.5385C74.1555 87.3597 73.8702 87.0363 73.6721 86.5683C73.4714 86.0941 73.4347 85.6655 73.5621 85.2825C73.6887 84.8974 73.9576 84.6178 74.3689 84.4437C74.6102 84.3416 74.8421 84.3078 75.0645 84.3423C75.2882 84.3738 75.4999 84.4735 75.6996 84.6414L75.4704 84.1L75.9615 83.8922ZM82.1789 84.6569L81.4609 82.9603C81.3374 82.6686 81.1872 82.4773 81.0102 82.3864C80.8323 82.2935 80.6216 82.2985 80.3782 82.4015C80.246 82.4575 80.1348 82.5367 80.0446 82.6392C79.9556 82.7388 79.8931 82.8543 79.8572 82.9858C79.8325 83.0853 79.8289 83.1907 79.8463 83.3021C79.8638 83.4135 79.9213 83.5846 80.019 83.8154L80.6491 85.3043L80.1738 85.5054L79.4558 83.8088C79.3324 83.5172 79.1821 83.3259 79.0051 83.235C78.8272 83.1421 78.6166 83.1471 78.3731 83.2501C78.2409 83.3061 78.1287 83.3857 78.0363 83.4891C77.9452 83.5896 77.8817 83.7055 77.8458 83.837C77.8223 83.9335 77.8184 84.0354 77.8341 84.1426C77.8519 84.2489 77.9118 84.4227 78.014 84.664L78.6441 86.1529L78.1688 86.354L76.9499 83.4739L77.4315 83.2701L77.6193 83.7139C77.6607 83.4786 77.7453 83.2808 77.8729 83.1204C78.0005 82.96 78.1723 82.8341 78.3885 82.7426C78.6214 82.644 78.841 82.6104 79.0473 82.6419C79.2527 82.6712 79.4378 82.7636 79.6026 82.9191C79.6429 82.6694 79.7266 82.4608 79.8536 82.2932C79.9827 82.1248 80.1585 81.9935 80.3809 81.8993C80.702 81.7635 80.991 81.7476 81.2478 81.8517C81.5046 81.9557 81.701 82.1683 81.8369 82.4894L82.6668 84.4504L82.1789 84.6569Z" fill="white"/>
<path d="M54.2809 72.1823L52.3329 67.5795L55.7882 66.1172L57.7362 70.7199L57.1624 70.9627L55.43 66.8692L53.1286 67.8432L54.8611 71.9367L54.2809 72.1823ZM59.073 66.004C59.4984 65.8239 59.9029 65.8276 60.2862 66.015C60.6739 66.2006 60.9941 66.5921 61.2469 67.1895C61.4124 67.5805 61.4923 67.9369 61.4866 68.2586C61.4833 68.5742 61.4033 68.8462 61.2466 69.0746C61.0924 69.297 60.8714 69.4691 60.5834 69.591C60.4072 69.6655 60.2404 69.7083 60.0828 69.7192C59.9253 69.7301 59.7816 69.72 59.6519 69.6888C59.5246 69.6514 59.4075 69.6022 59.3005 69.541L59.2618 69.5574C59.3014 69.6268 59.3491 69.7156 59.4049 69.8237C59.4608 69.9318 59.506 70.0266 59.5406 70.1083L60.1408 71.5265L59.5735 71.7666L57.4564 66.7642L57.9206 66.5677L58.1971 67.0056L58.2229 66.9947C58.2498 66.8667 58.2933 66.7419 58.3532 66.6202C58.4175 66.4967 58.5063 66.3832 58.6195 66.2795C58.737 66.174 58.8882 66.0822 59.073 66.004ZM59.1717 66.5247C58.9397 66.6229 58.7718 66.7471 58.6682 66.8974C58.5627 67.0434 58.5151 67.2181 58.5252 67.4216C58.5353 67.6251 58.5955 67.8631 58.7058 68.1357L58.7521 68.2453C58.8722 68.5289 59.0041 68.7569 59.148 68.9291C59.2918 69.1013 59.4564 69.209 59.6419 69.2521C59.8317 69.2934 60.0512 69.2613 60.3005 69.1558C60.511 69.0667 60.6584 68.9359 60.7425 68.7635C60.8309 68.5893 60.8655 68.3897 60.8463 68.1647C60.8296 67.9336 60.7667 67.6891 60.6576 67.4313C60.4902 67.0359 60.2792 66.7528 60.0244 66.5819C59.774 66.4091 59.4898 66.3901 59.1717 66.5247ZM62.8497 66.9672C62.8661 67.0059 62.8876 67.0627 62.9142 67.1375C62.9433 67.2063 62.973 67.2824 63.0032 67.3659C63.0317 67.4451 63.0592 67.5221 63.0858 67.597C63.1106 67.6676 63.13 67.7252 63.1438 67.77L63.769 64.0926L64.4652 63.7979L65.9276 67.2532L65.3989 67.477L64.5368 65.4399C64.5077 65.3711 64.4695 65.2809 64.4222 65.1691C64.3793 65.0556 64.3372 64.9442 64.296 64.8349C64.253 64.7213 64.2218 64.6357 64.2025 64.578L63.5875 68.2436L62.8848 68.541L61.4225 65.0857L61.9576 64.8592L62.8497 66.9672ZM68.7116 63.027C68.8025 63.2419 68.809 63.4367 68.731 63.6116C68.653 63.7865 68.5221 63.9382 68.3383 64.0667L68.3492 64.0925C68.5768 64.0316 68.7965 64.0298 69.0083 64.0872C69.2182 64.1402 69.3777 64.2957 69.4869 64.5535C69.5487 64.6996 69.5781 64.8468 69.5749 64.9951C69.5761 65.1416 69.5399 65.2836 69.4664 65.4211C69.3928 65.5587 69.2789 65.6905 69.1245 65.8166C68.9683 65.9385 68.7656 66.0522 68.5163 66.1576L67.0272 66.7879L65.5649 63.3326L67.0475 62.7051C67.2925 62.6014 67.5235 62.5366 67.7405 62.5106C67.9601 62.4785 68.153 62.5033 68.3193 62.5849C68.4881 62.6604 68.6188 62.8078 68.7116 63.027ZM68.9002 64.8018C68.8166 64.6041 68.6813 64.4941 68.4945 64.4718C68.3078 64.4495 68.0682 64.5002 67.776 64.6239L66.9315 64.9813L67.4008 66.0901L68.2581 65.7272C68.5418 65.6072 68.7415 65.4745 68.8574 65.3292C68.9714 65.1796 68.9857 65.0038 68.9002 64.8018ZM68.1679 63.3407C68.0987 63.1774 67.9886 63.0847 67.8373 63.0625C67.6885 63.0343 67.4809 63.0765 67.2145 63.1893L66.3313 63.5631L66.7324 64.5107L67.5124 64.1806C67.7917 64.0624 67.9881 63.9337 68.1015 63.7945C68.2148 63.6553 68.237 63.504 68.1679 63.3407ZM70.5863 61.1314C70.8828 61.0059 71.1636 60.9631 71.4288 61.0029C71.6982 61.0409 71.9388 61.1544 72.1506 61.3435C72.3649 61.5265 72.5384 61.7748 72.6712 62.0885L72.8157 62.4302L70.4499 63.4315C70.624 63.8189 70.8493 64.0758 71.1257 64.202C71.4045 64.3222 71.7159 64.3095 72.0597 64.164C72.2789 64.0712 72.4641 63.97 72.6153 63.8604C72.769 63.7447 72.9198 63.6099 73.0675 63.4562L73.2776 63.9526C73.1341 64.1045 72.9837 64.234 72.8264 64.3412C72.6708 64.4526 72.4749 64.5583 72.2385 64.6584C71.9119 64.7966 71.5936 64.8528 71.2837 64.8268C70.978 64.7991 70.6988 64.6842 70.4461 64.482C70.1958 64.2738 69.9897 63.9784 69.8278 63.5959C69.6677 63.2177 69.5927 62.8669 69.6028 62.5434C69.6171 62.2181 69.7073 61.9342 69.8732 61.6916C70.0434 61.4473 70.2811 61.2606 70.5863 61.1314ZM70.7762 61.5983C70.5055 61.7129 70.3279 61.8919 70.2435 62.1354C70.1615 62.3728 70.1709 62.6526 70.2718 62.9747L72.0317 62.2299C71.948 62.0323 71.8452 61.8731 71.7232 61.7524C71.6012 61.6318 71.4606 61.557 71.3014 61.5281C71.1447 61.493 70.9696 61.5165 70.7762 61.5983ZM75.5049 59.6883L74.3768 60.1657L75.6372 63.144L75.0764 63.3813L73.8159 60.4031L72.7007 60.8751L72.4988 60.398L75.303 59.2112L75.5049 59.6883Z" fill="black"/>
<line x1="66.7961" y1="75.4461" x2="70.8716" y2="73.6049" stroke="white"/>
<line x1="67.7168" y1="77.4838" x2="71.7923" y2="75.6426" stroke="black"/>
</svg>
